<?xml version="1.0" encoding="UTF-8"?>
<svg id="Layer_2" data-name="Layer 2" xmlns="http://www.w3.org/2000/svg" viewBox="0 0 589.06 367.34">
  <defs>
    <style>
      .cls-1 {
        fill: #90d14f;
      }

      .cls-1, .cls-2 {
        stroke-width: 0px;
      }

      .cls-2 {
        fill: #0057e2;
      }
    </style>
  </defs>
  <g id="Layer_1-2" data-name="Layer 1">
    <g>
      <polygon class="cls-2" points="589.05 367.34 447.14 367.34 414.46 344.91 343.23 295.99 294.55 262.54 294.49 262.54 223.48 213.74 294.55 164.92 365.57 213.74 414.24 247.22 485.44 296.14 534.15 329.62 589.05 367.34"/>
      <polygon class="cls-1" points="245.82 295.99 174.59 344.91 141.91 367.34 0 367.34 54.9 329.62 103.61 296.14 174.8 247.22 245.82 295.99"/>
      <polygon class="cls-2" points="365.74 48.89 294.54 97.81 245.68 131.35 174.61 180.18 125.87 213.62 54.67 262.54 5.97 295.99 .02 300.08 .02 202.27 54.67 164.73 103.41 131.26 174.51 82.43 223.31 48.89 294.54 0 365.74 48.89"/>
      <polygon class="cls-1" points="589.06 202.3 589.06 300.11 583.08 295.99 534.38 262.54 463.18 213.62 414.44 180.18 343.37 131.35 414.53 82.43 485.64 131.26 534.38 164.73 589.06 202.3"/>
    </g>
  </g>
</svg>