<?xml version="1.0" encoding="UTF-8"?>
<svg id="Layer_2" data-name="Layer 2" xmlns="http://www.w3.org/2000/svg" viewBox="0 0 3955.31 1657.26">
  <defs>
    <style>
      .cls-1 {
        fill: #90d14f;
      }

      .cls-1, .cls-2 {
        stroke-width: 0px;
      }

      .cls-2 {
        fill: #fff;
      }
    </style>
  </defs>
  <g id="Layer_1-2" data-name="Layer 1">
    <g>
      <g>
        <path class="cls-1" d="m1004.98,1657.26c-19.75,0-36.05-6.52-48.9-19.56-12.86-13.04-19.28-29.06-19.28-48.07s6.43-35.03,19.28-48.07c12.86-13.04,29.16-19.56,48.9-19.56,11.92,0,22.88,2.86,32.88,8.57,10,5.71,17.79,13.41,23.38,23.1l-15.09,8.76c-3.73-7.2-9.29-12.95-16.67-17.23-7.39-4.28-15.56-6.43-24.5-6.43-15.03,0-27.29,4.84-36.79,14.53-9.5,9.69-14.25,21.8-14.25,36.33s4.75,26.45,14.25,36.14c9.5,9.69,21.77,14.53,36.79,14.53,8.94,0,17.11-2.14,24.5-6.43,7.39-4.28,12.95-9.97,16.67-17.05l15.09,8.57c-5.47,9.69-13.23,17.42-23.29,23.19s-21.05,8.66-32.98,8.66Z"/>
        <path class="cls-1" d="m1252.3,1637.51c-13.1,13.17-29.1,19.75-47.97,19.75s-34.84-6.58-47.88-19.75c-13.04-13.16-19.56-29.12-19.56-47.88s6.52-34.87,19.56-47.97c13.04-13.1,29-19.65,47.88-19.65s34.87,6.55,47.97,19.65c13.1,13.1,19.65,29.1,19.65,47.97s-6.55,34.72-19.65,47.88Zm-83.84-11.83c9.62,9.75,21.58,14.62,35.86,14.62s26.24-4.87,35.86-14.62c9.62-9.75,14.44-21.76,14.44-36.05s-4.82-26.48-14.44-36.24c-9.63-9.75-21.58-14.62-35.86-14.62s-26.24,4.88-35.86,14.62c-9.63,9.75-14.44,21.83-14.44,36.24s4.81,26.3,14.44,36.05Z"/>
        <path class="cls-1" d="m1437.2,1524.43h17.33v130.41h-13.97l-67.07-97.44v97.44h-17.33v-130.41h13.4l67.64,97.94v-97.94Z"/>
        <path class="cls-1" d="m1585.87,1657.26c-12.17,0-22.57-2.86-31.21-8.57-8.63-5.71-14.69-13.54-18.16-23.47l14.9-8.57c5.09,15.77,16.7,23.66,34.84,23.66,8.94,0,15.77-1.83,20.49-5.5,4.72-3.67,7.08-8.54,7.08-14.63s-2.36-10.87-7.08-13.98c-4.72-3.11-12.61-6.4-23.66-9.88-5.41-1.86-9.56-3.29-12.44-4.28-2.88-.99-6.47-2.57-10.75-4.75-4.28-2.17-7.48-4.41-9.59-6.71-2.11-2.3-4.01-5.31-5.68-9.04-1.68-3.73-2.51-7.95-2.51-12.67,0-11.3,3.97-20.27,11.92-26.92,7.95-6.64,17.63-9.97,29.06-9.97,10.31,0,19.28,2.61,26.92,7.82,7.64,5.22,13.38,12.11,17.23,20.68l-14.53,8.38c-5.59-13.41-15.46-20.12-29.62-20.12-7.08,0-12.79,1.74-17.14,5.21-4.35,3.48-6.52,8.19-6.52,14.15s2.05,10.05,6.15,13.03c4.1,2.98,11.18,6.08,21.25,9.31,3.53,1.25,6.05,2.14,7.58,2.68,1.53.54,3.88,1.37,7.05,2.5,3.17,1.12,5.5,2.06,6.99,2.8,1.49.74,3.51,1.8,6.05,3.17,2.54,1.37,4.44,2.68,5.68,3.92,1.24,1.25,2.7,2.77,4.38,4.57,1.67,1.8,2.88,3.64,3.63,5.5.74,1.87,1.4,4.01,1.96,6.44.56,2.43.84,5.01.84,7.74,0,11.43-4.16,20.52-12.48,27.29-8.32,6.77-19.19,10.15-32.6,10.15Z"/>
        <path class="cls-1" d="m1793.59,1524.43v16.39h-38.56v114.02h-17.14v-114.02h-38.38v-16.39h94.08Z"/>
        <path class="cls-1" d="m1951.39,1654.84l-29.21-49.93h-30.78v49.93h-17.33v-130.41h52.16c11.18,0,20.74,3.94,28.69,11.83,7.95,7.89,11.92,17.42,11.92,28.6,0,8.45-2.52,16.15-7.55,23.1-5.03,6.96-11.52,11.86-19.47,14.72l30.74,52.16h-19.19Zm-59.99-114.2v48.62h34.84c6.46,0,11.95-2.39,16.49-7.17,4.53-4.78,6.8-10.53,6.8-17.23s-2.27-12.42-6.8-17.14c-4.54-4.72-10.03-7.08-16.49-7.08h-34.84Z"/>
        <path class="cls-1" d="m2132.85,1644.68c-9.07,8.38-20.8,12.57-35.21,12.57s-26.17-4.19-35.3-12.57c-9.13-8.38-13.69-19.59-13.69-33.63v-86.63h17.33v85.88c0,9.19,2.73,16.49,8.2,21.89,5.46,5.4,13.29,8.1,23.47,8.1s18.01-2.7,23.47-8.1c5.46-5.4,8.2-12.7,8.2-21.89v-85.88h17.14v86.63c0,14.04-4.54,25.24-13.6,33.63Z"/>
        <path class="cls-1" d="m2297.53,1657.26c-19.75,0-36.05-6.52-48.9-19.56-12.86-13.04-19.28-29.06-19.28-48.07s6.43-35.03,19.28-48.07c12.86-13.04,29.16-19.56,48.9-19.56,11.92,0,22.88,2.86,32.88,8.57,10,5.71,17.79,13.41,23.38,23.1l-15.09,8.76c-3.73-7.2-9.29-12.95-16.67-17.23-7.39-4.28-15.56-6.43-24.5-6.43-15.03,0-27.29,4.84-36.79,14.53-9.5,9.69-14.25,21.8-14.25,36.33s4.75,26.45,14.25,36.14c9.5,9.69,21.77,14.53,36.79,14.53,8.94,0,17.11-2.14,24.5-6.43,7.39-4.28,12.95-9.97,16.67-17.05l15.09,8.57c-5.47,9.69-13.23,17.42-23.29,23.19-10.06,5.78-21.05,8.66-32.98,8.66Z"/>
        <path class="cls-1" d="m2518.67,1524.43v16.39h-38.56v114.02h-17.14v-114.02h-38.38v-16.39h94.08Z"/>
        <path class="cls-1" d="m2599.15,1524.43h17.33v130.41h-17.33v-130.41Z"/>
        <path class="cls-1" d="m2816.29,1637.51c-13.1,13.17-29.1,19.75-47.97,19.75s-34.84-6.58-47.88-19.75c-13.04-13.16-19.56-29.12-19.56-47.88s6.52-34.87,19.56-47.97c13.04-13.1,29-19.65,47.88-19.65s34.87,6.55,47.97,19.65c13.1,13.1,19.65,29.1,19.65,47.97s-6.55,34.72-19.65,47.88Zm-83.84-11.83c9.62,9.75,21.58,14.62,35.86,14.62s26.24-4.87,35.86-14.62c9.62-9.75,14.44-21.76,14.44-36.05s-4.82-26.48-14.44-36.24c-9.63-9.75-21.58-14.62-35.86-14.62s-26.24,4.88-35.86,14.62c-9.63,9.75-14.44,21.83-14.44,36.24s4.81,26.3,14.44,36.05Z"/>
        <path class="cls-1" d="m3001.19,1524.43h17.33v130.41h-13.97l-67.07-97.44v97.44h-17.33v-130.41h13.4l67.64,97.94v-97.94Z"/>
      </g>
      <g>
        <polygon class="cls-2" points="2604.7 782.09 2302.57 782.09 2232.99 734.33 2081.34 630.18 1977.7 558.97 1977.57 558.97 1826.38 455.07 1977.7 351.12 2128.9 455.07 2232.53 526.35 2384.11 630.5 2487.81 701.78 2604.7 782.09"/>
        <polygon class="cls-1" points="1873.94 630.18 1722.29 734.33 1652.71 782.09 1350.58 782.09 1467.47 701.78 1571.17 630.5 1722.75 526.35 1873.94 630.18"/>
        <polygon class="cls-2" points="2129.26 104.09 1977.67 208.24 1873.65 279.65 1722.33 383.6 1618.56 454.81 1466.98 558.97 1363.28 630.18 1350.61 638.88 1350.61 430.64 1466.98 350.73 1570.74 279.45 1722.13 175.49 1826.02 104.09 1977.67 0 2129.26 104.09"/>
        <polygon class="cls-1" points="2604.73 430.71 2604.73 638.95 2592 630.18 2488.3 558.97 2336.72 454.81 2232.95 383.6 2081.63 279.65 2233.15 175.49 2384.54 279.45 2488.3 350.73 2604.73 430.71"/>
      </g>
      <g>
        <path class="cls-2" d="m224.17,1189.19c29.61,18.94,44.42,46.15,44.42,81.61,0,31.34-11.19,56.82-33.58,76.45-22.39,19.63-50.1,29.44-83.16,29.44H0v-361.57h141.53c32.37,0,59.48,9.56,81.35,28.67,21.86,19.11,32.8,43.99,32.8,74.64,0,28.92-10.51,52.52-31.51,70.76Zm-82.64-96.59h-58.88v64.05h58.88c9.3,0,16.87-3.01,22.73-9.04,5.85-6.02,8.78-13.69,8.78-22.99s-2.93-16.96-8.78-22.99c-5.86-6.02-13.43-9.04-22.73-9.04Zm10.33,206.61c10.33,0,18.59-3.18,24.79-9.56,6.2-6.37,9.3-14.72,9.3-25.05s-3.1-18.67-9.3-25.05c-6.2-6.37-14.46-9.56-24.79-9.56h-69.21v69.21h69.21Z"/>
        <path class="cls-2" d="m413.22,1297.15h144.63v79.55h-227.27v-361.57h224.69v79.55h-142.04v59.92h129.13v78.51h-129.13v64.05Z"/>
        <path class="cls-2" d="m751.54,1383.92c-36.85,0-67.59-8.01-92.2-24.02-24.62-16.01-42.1-37.79-52.43-65.34l71.28-41.32c14.46,33.41,39.77,50.1,75.93,50.1,32.71,0,49.07-9.81,49.07-29.44,0-10.67-5.25-19.02-15.75-25.05-10.51-6.02-30.22-12.99-59.14-20.92-15.16-4.13-28.41-8.78-39.77-13.94-11.36-5.17-22.47-11.96-33.31-20.4-10.85-8.44-19.11-19.02-24.79-31.77-5.68-12.74-8.52-27.38-8.52-43.91,0-33.4,11.96-60.09,35.9-80.06,23.93-19.97,52.43-29.96,85.48-29.96,29.61,0,55.78,6.97,78.51,20.92,22.73,13.94,40.63,34.18,53.72,60.69l-69.73,40.81c-6.55-13.77-14.64-24.19-24.28-31.25-9.64-7.05-22.39-10.59-38.22-10.59-12.4,0-21.95,2.67-28.67,8.01-6.72,5.34-10.07,11.8-10.07,19.37,0,8.96,4.21,16.71,12.66,23.24,8.43,6.55,25.91,13.78,52.43,21.69,14.46,4.48,25.65,8.1,33.57,10.85,7.92,2.76,17.99,7.32,30.22,13.69,12.22,6.38,21.52,13.09,27.89,20.15,6.37,7.06,12.05,16.36,17.05,27.89,4.99,11.54,7.49,24.71,7.49,39.51,0,34.44-12.4,61.56-37.19,81.35-24.79,19.81-57.16,29.7-97.11,29.7Z"/>
        <path class="cls-2" d="m1064.04,1383.92c-36.85,0-67.59-8.01-92.2-24.02-24.62-16.01-42.1-37.79-52.43-65.34l71.28-41.32c14.46,33.41,39.77,50.1,75.93,50.1,32.71,0,49.07-9.81,49.07-29.44,0-10.67-5.25-19.02-15.75-25.05-10.51-6.02-30.22-12.99-59.14-20.92-15.16-4.13-28.41-8.78-39.77-13.94-11.36-5.17-22.47-11.96-33.31-20.4-10.85-8.44-19.11-19.02-24.79-31.77-5.68-12.74-8.52-27.38-8.52-43.91,0-33.4,11.96-60.09,35.9-80.06,23.93-19.97,52.43-29.96,85.48-29.96,29.61,0,55.78,6.97,78.51,20.92,22.73,13.94,40.63,34.18,53.72,60.69l-69.73,40.81c-6.55-13.77-14.64-24.19-24.28-31.25-9.64-7.05-22.39-10.59-38.22-10.59-12.4,0-21.95,2.67-28.67,8.01-6.72,5.34-10.07,11.8-10.07,19.37,0,8.96,4.21,16.71,12.66,23.24,8.43,6.55,25.91,13.78,52.43,21.69,14.46,4.48,25.65,8.1,33.57,10.85,7.92,2.76,17.99,7.32,30.22,13.69,12.22,6.38,21.52,13.09,27.89,20.15,6.37,7.06,12.05,16.36,17.05,27.89,4.99,11.54,7.49,24.71,7.49,39.51,0,34.44-12.4,61.56-37.19,81.35-24.79,19.81-57.16,29.7-97.11,29.7Z"/>
        <path class="cls-2" d="m1540.04,1189.19c16.53,7.93,29.7,19.29,39.52,34.09,9.81,14.81,14.72,31.86,14.72,51.14,0,28.92-10.16,53.2-30.48,72.83-20.32,19.63-45.12,29.44-74.38,29.44h-155.99v-361.57h144.63c28.23,0,52.17,9.47,71.8,28.41,19.63,18.94,29.44,42.35,29.44,70.25,0,32.03-13.09,57.16-39.26,75.41Zm-61.98-129.13h-96.59v110.54h96.59c15.15,0,27.89-5.33,38.22-16.01,10.33-10.67,15.5-23.76,15.5-39.26s-5.25-28.15-15.75-39c-10.51-10.85-23.16-16.27-37.97-16.27Zm11.36,271.69c16.18,0,29.78-5.68,40.8-17.05,11.02-11.36,16.53-25.31,16.53-41.84s-5.6-29.96-16.79-41.32c-11.19-11.36-24.71-17.05-40.55-17.05h-107.95v117.25h107.95Z"/>
        <path class="cls-2" d="m1886.11,1376.69l-80.98-138.43h-85.34v138.43h-48.04v-361.57h144.63c30.99,0,57.5,10.94,79.55,32.8,22.03,21.87,33.06,48.3,33.06,79.29,0,23.42-6.98,44.77-20.92,64.05-13.95,19.29-31.94,32.89-53.98,40.81l85.23,144.63h-53.2Zm-166.32-316.63v134.81h96.59c17.9,0,33.14-6.62,45.71-19.88,12.56-13.25,18.85-29.18,18.85-47.78s-6.29-34.43-18.85-47.52c-12.57-13.08-27.81-19.63-45.71-19.63h-96.59Z"/>
        <path class="cls-2" d="m2307.34,1328.65c-36.33,36.51-80.67,54.75-133.01,54.75s-96.59-18.25-132.75-54.75c-36.16-36.49-54.23-80.75-54.23-132.75s18.08-96.67,54.23-133.01c36.16-36.33,80.4-54.49,132.75-54.49s96.67,18.17,133.01,54.49c36.33,36.33,54.49,80.67,54.49,133.01s-18.17,96.25-54.49,132.75Zm-232.44-32.8c26.68,27.04,59.83,40.55,99.43,40.55s72.74-13.51,99.43-40.55c26.68-27.03,40.03-60.34,40.03-99.95s-13.35-73.43-40.03-100.47c-26.69-27.03-59.83-40.55-99.43-40.55s-72.75,13.52-99.43,40.55c-26.69,27.04-40.03,60.52-40.03,100.47s13.34,72.92,40.03,99.95Z"/>
        <path class="cls-2" d="m2651.08,1015.12v45.46h-106.92v316.11h-47.52v-316.11h-106.41v-45.46h260.85Z"/>
        <path class="cls-2" d="m2942.92,1015.12h47.52v361.57h-47.52v-162.71h-175.62v162.71h-48.04v-361.57h48.04v153.41h175.62v-153.41Z"/>
        <path class="cls-2" d="m3136.61,1331.24h167.87v45.46h-215.91v-361.57h213.33v45.46h-165.29v111.05h152.37v44.94h-152.37v114.67Z"/>
        <path class="cls-2" d="m3597.35,1376.69l-80.98-138.43h-85.34v138.43h-48.04v-361.57h144.63c30.99,0,57.5,10.94,79.55,32.8,22.03,21.87,33.06,48.3,33.06,79.29,0,23.42-6.98,44.77-20.92,64.05-13.95,19.29-31.94,32.89-53.98,40.81l85.23,144.63h-53.2Zm-166.32-316.63v134.81h96.59c17.9,0,33.14-6.62,45.71-19.88,12.56-13.25,18.85-29.18,18.85-47.78s-6.29-34.43-18.85-47.52c-12.57-13.08-27.81-19.63-45.71-19.63h-96.59Z"/>
        <path class="cls-2" d="m3830.3,1383.41c-33.75,0-62.58-7.92-86.52-23.76-23.94-15.83-40.72-37.53-50.36-65.08l41.32-23.76c14.11,43.74,46.31,65.6,96.59,65.6,24.79,0,43.73-5.08,56.81-15.24,13.08-10.16,19.63-23.68,19.63-40.56s-6.55-30.14-19.63-38.75c-13.08-8.61-34.95-17.74-65.59-27.39-15.01-5.16-26.51-9.11-34.5-11.86-8-2.75-17.93-7.13-29.81-13.16-11.88-6.02-20.75-12.22-26.6-18.6-5.86-6.37-11.11-14.72-15.75-25.05-4.65-10.33-6.97-22.03-6.97-35.12,0-31.33,11.02-56.21,33.06-74.64,22.03-18.42,48.89-27.63,80.58-27.63,28.57,0,53.46,7.23,74.64,21.69,21.18,14.46,37.1,33.57,47.78,57.33l-40.29,23.24c-15.5-37.19-42.87-55.79-82.13-55.79-19.63,0-35.47,4.82-47.52,14.46-12.06,9.64-18.08,22.72-18.08,39.23s5.68,27.88,17.05,36.13c11.36,8.26,31,16.87,58.91,25.81,9.77,3.46,16.77,5.94,21.01,7.44,4.22,1.5,10.75,3.81,19.54,6.93,8.79,3.11,15.25,5.7,19.39,7.77,4.13,2.07,9.73,5,16.77,8.8,7.06,3.79,12.3,7.42,15.74,10.86,3.44,3.45,7.49,7.68,12.13,12.68,4.64,5,7.99,10.09,10.06,15.26,2.06,5.17,3.87,11.12,5.42,17.85,1.56,6.73,2.33,13.88,2.33,21.47,0,31.69-11.54,56.91-34.61,75.67-23.07,18.77-53.2,28.15-90.39,28.15Z"/>
      </g>
    </g>
  </g>
</svg>